<?xml version="1.0" standalone="no"?>
<!DOCTYPE svg PUBLIC "-//W3C//DTD SVG 20010904//EN"
 "http://www.w3.org/TR/2001/REC-SVG-20010904/DTD/svg10.dtd">
<svg version="1.0" xmlns="http://www.w3.org/2000/svg"
 width="500.000000pt" height="500.000000pt" viewBox="0 0 500.000000 500.000000"
 preserveAspectRatio="xMidYMid meet">

<g transform="translate(0.000000,500.000000) scale(0.100000,-0.100000)"
fill="#000000" stroke="none">
<path d="M0 2500 l0 -2500 2500 0 2500 0 0 2500 0 2500 -2500 0 -2500 0 0
-2500z m2323 1383 c-7 -2 -19 -2 -25 0 -7 3 -2 5 12 5 14 0 19 -2 13 -5z m295
0 c-10 -2 -28 -2 -40 0 -13 2 -5 4 17 4 22 1 32 -1 23 -4z m-375 -10 c-7 -2
-19 -2 -25 0 -7 3 -2 5 12 5 14 0 19 -2 13 -5z m450 0 c-7 -2 -19 -2 -25 0 -7
3 -2 5 12 5 14 0 19 -2 13 -5z m54 -9 c-3 -3 -12 -4 -19 -1 -8 3 -5 6 6 6 11
1 17 -2 13 -5z m46 -11 c-7 -2 -19 -2 -25 0 -7 3 -2 5 12 5 14 0 19 -2 13 -5z
m62 -13 c13 -5 14 -9 5 -9 -8 0 -24 4 -35 9 -13 5 -14 9 -5 9 8 0 24 -4 35 -9z
m65 -20 c18 -12 2 -12 -25 0 -13 6 -15 9 -5 9 8 0 22 -4 30 -9z m80 -30 c8 -5
11 -10 5 -10 -5 0 -17 5 -25 10 -8 5 -10 10 -5 10 6 0 17 -5 25 -10z m113 -51
c88 -44 212 -123 224 -142 4 -6 -17 6 -45 27 -29 21 -103 65 -165 97 -128 67
-138 80 -14 18z m-841 -21 c5 -34 38 -37 38 -4 0 16 6 26 15 26 11 0 15 -11
15 -39 0 -22 3 -46 6 -55 4 -11 1 -16 -10 -16 -9 0 -16 8 -16 20 0 13 -7 20
-20 20 -15 0 -20 -7 -20 -25 0 -16 -6 -25 -15 -25 -12 0 -15 13 -15 60 0 58
15 84 22 38z m313 -19 c24 -70 26 -89 10 -89 -8 0 -15 7 -15 15 0 19 -56 21
-63 3 -2 -7 -8 -9 -13 -5 -10 9 47 118 60 114 5 -2 15 -19 21 -38z m-521 -5
c26 -10 18 -25 -10 -22 -15 2 -29 -3 -31 -9 -3 -9 7 -13 31 -13 40 0 57 -21
39 -49 -12 -19 -74 -22 -80 -4 -3 7 7 10 24 10 42 -3 44 18 1 21 -43 4 -56 26
-32 53 18 20 32 23 58 13z m750 -30 c7 -25 8 -26 27 -8 13 12 23 14 30 7 7 -7
2 -15 -16 -27 -15 -10 -31 -31 -37 -47 -13 -38 -30 -27 -23 14 4 18 2 45 -4
60 -8 21 -8 27 3 27 8 0 17 -12 20 -26z m-1194 -48 c0 -2 -8 -10 -17 -17 -16
-13 -17 -12 -4 4 13 16 21 21 21 13z m200 -31 c-8 -34 -7 -36 28 -51 28 -11
33 -17 22 -24 -9 -5 -24 -3 -42 6 -28 15 -28 14 -22 -11 10 -39 -13 -30 -36
15 -21 41 -26 70 -12 70 5 0 14 -10 20 -22 6 -13 11 -18 11 -11 2 22 21 63 30
63 5 0 6 -15 1 -35z m-240 2 c0 -2 -12 -14 -27 -28 l-28 -24 24 28 c23 25 31
32 31 24z m1791 -14 c13 -16 12 -17 -3 -4 -10 7 -18 15 -18 17 0 8 8 3 21 -13z
m99 -88 c30 -30 52 -55 49 -55 -2 0 -29 25 -59 55 -30 30 -52 55 -49 55 2 0
29 -25 59 -55z m-247 -52 l-6 -48 25 30 c15 17 29 27 33 23 10 -9 -56 -99 -69
-95 -6 2 -9 22 -7 47 l3 44 -24 -29 c-37 -42 -42 -15 -7 33 42 58 61 56 52 -5z
m-1607 -4 c30 -17 52 -35 48 -40 -3 -5 -13 -7 -22 -5 -22 7 -47 -9 -47 -28 0
-35 -21 -13 -36 38 -23 77 -20 79 57 35z m1944 -34 c13 -14 21 -25 18 -25 -2
0 -15 11 -28 25 -13 14 -21 25 -18 25 2 0 15 -11 28 -25z m-115 -124 c8 -13
-46 -121 -58 -114 -4 3 -6 12 -2 20 7 20 -22 53 -40 47 -7 -3 -16 -1 -19 4 -3
5 9 15 27 22 17 6 41 16 52 20 27 12 33 12 40 1z m-2205 -101 c-6 -11 -13 -20
-16 -20 -2 0 0 9 6 20 6 11 13 20 16 20 2 0 0 -9 -6 -20z m-47 -95 c-3 -9 -8
-14 -10 -11 -3 3 -2 9 2 15 9 16 15 13 8 -4z m2383 -54 l-27 -28 42 1 c23 1
43 -3 45 -9 3 -11 -72 -75 -87 -75 -17 0 -9 21 19 45 l27 24 -38 -9 c-49 -11
-56 4 -21 42 l29 31 -25 -7 c-14 -4 -33 -10 -42 -13 -11 -3 -18 0 -18 8 0 8
22 21 53 30 44 13 53 13 61 1 5 -9 -1 -23 -18 -41z m-1132 -143 c25 -73 46
-143 46 -154 0 -24 64 -199 107 -293 19 -42 36 -64 53 -70 18 -7 -2 -9 -75
-10 -72 0 -93 3 -77 10 20 8 23 13 17 41 -4 17 -15 50 -25 72 l-18 41 -27 -58
c-25 -54 -27 -67 -23 -150 5 -110 28 -164 96 -231 80 -79 186 -112 280 -87
l42 12 0 115 c0 121 -7 150 -43 164 -15 6 15 9 88 9 84 0 105 -3 88 -11 -29
-14 -34 -34 -40 -177 -4 -82 -9 -118 -15 -107 -13 23 -32 20 -103 -15 -79 -38
-151 -46 -233 -25 -151 38 -245 160 -246 316 0 89 28 159 91 230 32 36 39 49
32 67 -8 22 -9 21 -42 -12 -40 -40 -60 -43 -151 -18 -82 22 -109 14 -130 -37
-29 -72 -13 -133 37 -143 12 -2 -16 -5 -63 -5 -61 -1 -79 2 -62 8 28 12 27 10
146 350 53 151 98 281 101 288 3 7 23 12 53 12 l49 0 47 -132z m-1310 33 c-13
-46 -29 -113 -35 -150 -17 -97 -14 -302 6 -395 18 -85 71 -254 86 -272 5 -6 6
-20 2 -29 -4 -12 -3 -16 4 -12 6 4 14 0 17 -9 4 -9 2 -13 -5 -8 -6 4 -16 0
-21 -7 -8 -11 -9 -10 -4 4 3 9 1 17 -5 17 -6 0 -8 9 -4 23 7 22 7 22 -8 2 -8
-11 -12 -22 -9 -25 12 -9 12 -50 0 -50 -6 0 -8 3 -5 7 4 3 2 12 -4 20 -6 7 -8
13 -4 13 4 0 2 6 -5 14 -24 30 -63 219 -75 371 -12 140 15 346 66 510 29 95
32 76 3 -24z m2745 -91 c0 -9 -4 -8 -9 5 -5 11 -9 27 -9 35 0 9 4 8 9 -5 5
-11 9 -27 9 -35z m-155 -46 c8 -29 -10 -58 -30 -50 -7 3 -15 -2 -18 -10 -3 -8
-17 -14 -30 -14 -20 0 -27 7 -34 33 -9 32 -8 32 42 49 66 22 63 22 70 -8z
m163 4 c-3 -8 -6 -5 -6 6 -1 11 2 17 5 13 3 -3 4 -12 1 -19z m10 -40 c-3 -8
-6 -5 -6 6 -1 11 2 17 5 13 3 -3 4 -12 1 -19z m22 -92 c2 -45 -6 -27 -12 29
-4 34 -3 42 3 25 4 -14 8 -38 9 -54z m8 -88 c-2 -13 -4 -5 -4 17 -1 22 1 32 4
23 2 -10 2 -28 0 -40z m-1092 3 c36 -18 68 -38 71 -45 3 -7 -2 -29 -11 -50
l-16 -37 -45 50 c-62 69 -136 104 -209 99 -30 -1 -55 0 -55 4 0 12 35 17 117
14 68 -2 91 -7 148 -35z m935 -15 c0 -10 -17 -17 -55 -21 -53 -7 -76 -3 -62
11 3 3 30 10 59 14 29 4 54 8 56 9 1 0 2 -5 2 -13z m167 -183 c-2 -32 -3 -8
-3 52 0 61 1 87 3 58 2 -29 2 -78 0 -110z m-162 -54 c0 -8 -23 -22 -53 -33
-54 -19 -81 -15 -49 8 18 14 24 56 7 56 -5 0 -10 7 -10 15 0 12 10 10 53 -8
28 -13 52 -30 52 -38z m152 -86 c-3 -10 -5 -4 -5 12 0 17 2 24 5 18 2 -7 2
-21 0 -30z m-10 -65 c-3 -8 -6 -5 -6 6 -1 11 2 17 5 13 3 -3 4 -12 1 -19z
m-222 -59 c68 -17 65 -15 54 -48 -6 -16 -17 -32 -25 -35 -18 -7 -54 10 -54 25
0 6 -8 6 -21 -1 -38 -21 -32 6 6 28 17 10 18 11 3 12 -10 0 -18 7 -18 15 0 18
3 18 55 4z m-2469 -205 c-4 -12 -2 -15 9 -11 17 7 90 -77 80 -93 -3 -5 -1 -10
4 -10 6 0 11 -6 11 -13 0 -8 9 -22 20 -32 12 -11 18 -27 16 -44 -2 -19 6 -38
27 -62 17 -20 25 -25 18 -11 -12 22 1 33 14 12 4 -6 11 -8 16 -4 5 3 8 0 7 -8
-2 -7 3 -12 9 -11 7 2 12 0 12 -5 -3 -19 2 -23 15 -13 11 9 16 9 22 0 4 -7 3
-9 -4 -5 -6 3 -13 2 -16 -3 -4 -5 -2 -12 4 -16 5 -3 10 -12 10 -18 0 -8 -3 -8
-8 -2 -4 6 -20 21 -37 35 l-29 25 31 -39 c17 -21 29 -44 27 -50 -2 -6 14 -29
36 -51 38 -38 40 -38 60 -20 11 10 17 21 15 26 -3 4 -1 10 4 13 5 4 8 -2 6
-11 -2 -10 -4 -18 -5 -18 -1 0 -3 -17 -4 -38 -2 -23 2 -36 8 -34 6 2 11 13 11
25 0 11 4 24 8 29 5 4 7 2 5 -6 -1 -7 3 -16 11 -19 9 -3 11 0 6 8 -6 9 -3 9
14 0 12 -6 19 -15 16 -20 -3 -5 20 -23 52 -39 32 -17 54 -30 48 -30 -5 0 -21
6 -35 14 -30 17 -44 19 -34 4 5 -8 1 -8 -14 0 -28 15 -31 14 -28 -6 2 -9 9
-19 16 -21 8 -3 10 0 5 8 -9 14 17 2 50 -24 l20 -16 -20 5 c-19 6 -19 5 -2 -7
44 -31 49 -38 14 -19 -44 24 -51 26 -41 9 4 -8 3 -10 -2 -5 -5 5 -9 14 -9 19
0 6 -6 13 -14 16 -9 3 -11 0 -5 -9 7 -12 5 -12 -9 0 -9 7 -14 18 -10 24 4 6 0
8 -9 4 -17 -6 -53 25 -41 36 6 7 -11 10 -22 5 -14 -8 -202 202 -259 291 -40
62 -86 141 -86 147 0 3 6 2 13 -1 6 -4 1 2 -13 13 -21 18 -22 22 -10 38 13 16
13 17 -2 12 -11 -5 -15 -2 -13 10 2 9 4 20 4 25 1 4 4 7 7 7 3 0 3 -7 0 -16z
m199 -175 c11 -17 -1 -21 -15 -4 -8 9 -8 15 -2 15 6 0 14 -5 17 -11z m282
-115 c-3 -3 -12 -4 -19 -1 -8 3 -5 6 6 6 11 1 17 -2 13 -5z m96 -11 c-7 -2
-21 -2 -30 0 -10 3 -4 5 12 5 17 0 24 -2 18 -5z m110 -10 c-7 -2 -21 -2 -30 0
-10 3 -4 5 12 5 17 0 24 -2 18 -5z m-379 -12 c3 -5 -2 -15 -12 -22 -15 -12
-16 -12 -5 2 7 9 10 19 6 22 -3 4 -4 7 0 7 3 0 8 -4 11 -9z m459 2 c-7 -2 -19
-2 -25 0 -7 3 -2 5 12 5 14 0 19 -2 13 -5z m54 -9 c-3 -3 -12 -4 -19 -1 -8 3
-5 6 6 6 11 1 17 -2 13 -5z m-150 -10 c-3 -3 -12 -4 -19 -1 -8 3 -5 6 6 6 11
1 17 -2 13 -5z m190 0 c-3 -3 -12 -4 -19 -1 -8 3 -5 6 6 6 11 1 17 -2 13 -5z
m-310 -10 c-3 -3 -12 -4 -19 -1 -8 3 -5 6 6 6 11 1 17 -2 13 -5z m180 0 c-3
-3 -12 -4 -19 -1 -8 3 -5 6 6 6 11 1 17 -2 13 -5z m-120 -10 c-3 -3 -12 -4
-19 -1 -8 3 -5 6 6 6 11 1 17 -2 13 -5z m190 0 c-3 -3 -12 -4 -19 -1 -8 3 -5
6 6 6 11 1 17 -2 13 -5z m-492 -34 c-4 -21 16 -23 45 -5 13 8 13 7 1 -8 -7 -9
-10 -17 -6 -17 4 0 2 -7 -5 -15 -12 -14 -17 -12 -47 17 -32 31 -47 62 -18 38
14 -12 19 -7 16 13 -1 5 3 6 8 3 5 -4 8 -15 6 -26z m362 24 c-3 -3 -12 -4 -19
-1 -8 3 -5 6 6 6 11 1 17 -2 13 -5z m-100 -10 c-3 -3 -12 -4 -19 -1 -8 3 -5 6
6 6 11 1 17 -2 13 -5z m160 0 c-3 -3 -12 -4 -19 -1 -8 3 -5 6 6 6 11 1 17 -2
13 -5z m-332 -14 c3 -6 -1 -7 -9 -4 -18 7 -21 14 -7 14 6 0 13 -4 16 -10z
m382 4 c-3 -3 -12 -4 -19 -1 -8 3 -5 6 6 6 11 1 17 -2 13 -5z m-110 -40 c-3
-3 -12 -4 -19 -1 -8 3 -5 6 6 6 11 1 17 -2 13 -5z m40 -10 c-3 -3 -12 -4 -19
-1 -8 3 -5 6 6 6 11 1 17 -2 13 -5z m-167 -89 c14 -8 21 -14 15 -14 -5 0 -21
6 -35 14 -14 8 -20 14 -15 14 6 0 21 -6 35 -14z m-1 -51 c14 -12 -19 -1 -35
12 -18 14 -18 14 6 3 14 -6 27 -13 29 -15z m91 -14 c8 -5 11 -10 5 -10 -5 0
-17 5 -25 10 -8 5 -10 10 -5 10 6 0 17 -5 25 -10z m50 -20 c8 -5 11 -10 5 -10
-5 0 -17 5 -25 10 -8 5 -10 10 -5 10 6 0 17 -5 25 -10z m46 -118 c-5 -4 -146
66 -146 73 0 3 34 -12 75 -32 41 -20 73 -39 71 -41z m1304 43 c0 -10 -169 -89
-250 -117 -125 -42 -164 -50 -197 -37 -26 10 -27 12 -8 19 11 5 33 9 49 9 42
1 26 11 -20 13 -38 2 -38 2 -11 12 15 5 27 14 27 19 0 5 -8 6 -17 2 -14 -5
-15 -4 -6 6 9 9 16 9 25 1 33 -27 307 21 387 68 19 11 21 12 21 5z m-1260 -55
c8 -5 11 -10 5 -10 -5 0 -17 5 -25 10 -8 5 -10 10 -5 10 6 0 17 -5 25 -10z
m813 -117 c-7 -2 -21 -2 -30 0 -10 3 -4 5 12 5 17 0 24 -2 18 -5z"/>
<path d="M2547 3686 c-6 -15 1 -26 15 -26 4 0 8 9 8 20 0 23 -15 27 -23 6z"/>
<path d="M1570 3423 c0 -4 5 -15 10 -23 7 -11 12 -12 21 -3 8 8 6 14 -10 22
-12 7 -21 8 -21 4z"/>
<path d="M3392 3243 c-6 -2 -10 -9 -6 -14 8 -14 21 -11 28 6 6 15 1 17 -22 8z"/>
<path d="M2241 2798 c-35 -101 -66 -189 -69 -197 -4 -11 0 -11 18 2 31 21 68
21 141 1 66 -19 112 -13 107 14 -6 31 -123 362 -128 362 -3 0 -34 -82 -69
-182z"/>
<path d="M3682 2759 c2 -6 8 -10 13 -10 5 0 11 4 13 10 2 6 -4 11 -13 11 -9 0
-15 -5 -13 -11z"/>
<path d="M3632 2738 c6 -18 28 -21 28 -4 0 9 -7 16 -16 16 -9 0 -14 -5 -12
-12z"/>
<path d="M3710 2315 c0 -8 7 -15 15 -15 8 0 15 4 15 9 0 5 -7 11 -15 15 -9 3
-15 0 -15 -9z"/>
<path d="M3692 2058 c7 -19 38 -22 38 -4 0 10 -9 16 -21 16 -12 0 -19 -5 -17
-12z"/>
<path d="M1244 1873 c3 -6 2 -14 -4 -18 -16 -10 -11 -23 8 -20 18 3 18 23 0
40 -8 7 -9 6 -4 -2z"/>
<path d="M1440 1546 c0 -2 8 -10 18 -17 15 -13 16 -12 3 4 -13 16 -21 21 -21
13z"/>
<path d="M1570 1425 c-7 -8 -17 -12 -24 -8 -6 3 -2 -3 8 -15 22 -25 30 -22 32
13 1 29 0 30 -16 10z m7 -20 c0 -8 -4 -12 -9 -9 -5 3 -6 10 -3 15 9 13 12 11
12 -6z"/>
<path d="M1622 1400 c0 -3 -1 -7 -2 -10 -8 -22 -6 -41 8 -52 13 -11 14 -11 7
1 -6 11 -4 13 8 8 10 -4 16 -2 14 6 -1 7 8 11 23 10 25 -3 24 -2 -4 13 -21 12
-25 18 -16 24 8 5 4 8 -13 7 -14 -1 -25 -4 -25 -7z m33 -20 c4 -6 -1 -7 -11
-3 -11 4 -15 3 -10 -5 3 -6 2 -13 -3 -16 -7 -5 -8 11 -2 32 2 6 21 1 26 -8z"/>
<path d="M1695 1310 c3 -5 11 -10 16 -10 6 0 7 5 4 10 -3 6 -11 10 -16 10 -6
0 -7 -4 -4 -10z"/>
<path d="M1546 1471 c-4 -5 -2 -12 3 -15 5 -4 12 -2 15 3 4 5 2 12 -3 15 -5 4
-12 2 -15 -3z"/>
</g>
</svg>
